# xmcd
#
# Track frame offsets:
#	150
#	2560
#	33626
#	62658
#	77756
#	103305
#	130015
#	165434
#	195484
#	215806
#	239032
#	257032
#	272130
#	293905
#	312477
#
# Disc length: 4463 seconds
#
# Revision: 0
# Processed by: cddbd v1.5.2PL0 Copyright (c) Steve Scherf et al.
# Submitted via: audiograbber 1.83.01
#
DISCID=de116d0f
DTITLE=Defected - Defected In The House Miami 2006 cd1
DYEAR=2006
DGENRE=House
TTITLE0=In The Sun (Accapella)
TTITLE1=The Balloon Room
TTITLE2=The Way You Love Me
TTITLE3=Samo Iluzija
TTITLE4=Living My Life
TTITLE5=With Him
TTITLE6=Street Dreams
TTITLE7=Economy Class
TTITLE8=Let The Drums Speak
TTITLE9=The Cure and The Cause
TTITLE10=Waiting Is Over
TTITLE11=Poor People
TTITLE12=Stuck
TTITLE13=Me Myself and I
TTITLE14=Don't Give Up
EXTD=
EXTT0=
EXTT1=
EXTT2=
EXTT3=
EXTT4=
EXTT5=
EXTT6=
EXTT7=
EXTT8=
EXTT9=
EXTT10=
EXTT11=
EXTT12=
EXTT13=
EXTT14=
PLAYORDER=
